<mxfile host="65bd71144e">
    <diagram id="WkBjb4pW22fDtr13lLDv" name="ページ1">
        <mxGraphModel dx="1124" dy="658" grid="1" gridSize="10" guides="1" tooltips="1" connect="1" arrows="1" fold="1" page="1" pageScale="1" pageWidth="827" pageHeight="1169" math="0" shadow="0">
            <root>
                <mxCell id="0"/>
                <mxCell id="1" parent="0"/>
                <mxCell id="7" value="56" style="rounded=0;whiteSpace=wrap;html=1;fillColor=#FFFFFF;strokeColor=#36393d;" parent="1" vertex="1">
                    <mxGeometry x="20" y="30" width="780" height="240" as="geometry"/>
                </mxCell>
                <mxCell id="6" value="　No" style="rounded=0;whiteSpace=wrap;html=1;align=left;strokeColor=#CCCCCC;fillColor=#FFFFFF;fontColor=#000000;" parent="1" vertex="1">
                    <mxGeometry x="120" y="110" width="70" height="30" as="geometry"/>
                </mxCell>
                <mxCell id="9" value="　内容" style="rounded=0;whiteSpace=wrap;html=1;align=left;strokeColor=#CCCCCC;fontColor=#000000;fillColor=#FFFFFF;" parent="1" vertex="1">
                    <mxGeometry x="190" y="110" width="290" height="30" as="geometry"/>
                </mxCell>
                <mxCell id="10" value="　期限" style="rounded=0;whiteSpace=wrap;html=1;align=left;fillColor=#FFFFFF;fontColor=#000000;strokeColor=#CCCCCC;" parent="1" vertex="1">
                    <mxGeometry x="480" y="110" width="190" height="30" as="geometry"/>
                </mxCell>
                <mxCell id="11" value="　完了" style="rounded=0;whiteSpace=wrap;html=1;align=left;fillColor=#FFFFFF;fontColor=#000000;strokeColor=#CCCCCC;" parent="1" vertex="1">
                    <mxGeometry x="670" y="110" width="100" height="30" as="geometry"/>
                </mxCell>
                <mxCell id="12" value="　1" style="rounded=0;whiteSpace=wrap;html=1;align=left;fillColor=#FFFFFF;fontColor=#000000;strokeColor=#CCCCCC;" parent="1" vertex="1">
                    <mxGeometry x="120" y="150" width="70" height="40" as="geometry"/>
                </mxCell>
                <mxCell id="13" value="　ノートを購入する" style="rounded=0;whiteSpace=wrap;html=1;align=left;fillColor=#FFFFFF;fontColor=#000000;strokeColor=#CCCCCC;" parent="1" vertex="1">
                    <mxGeometry x="190" y="150" width="290" height="40" as="geometry"/>
                </mxCell>
                <mxCell id="14" value="　2024/12/04" style="rounded=0;whiteSpace=wrap;html=1;align=left;fillColor=#FFFFFF;fontColor=#000000;strokeColor=#CCCCCC;" parent="1" vertex="1">
                    <mxGeometry x="480" y="150" width="190" height="40" as="geometry"/>
                </mxCell>
                <mxCell id="15" value="　未完了" style="rounded=0;whiteSpace=wrap;html=1;align=left;fillColor=#FFFFFF;fontColor=#000000;strokeColor=#CCCCCC;" parent="1" vertex="1">
                    <mxGeometry x="670" y="150" width="100" height="40" as="geometry"/>
                </mxCell>
                <mxCell id="17" value="＋" style="rounded=1;whiteSpace=wrap;html=1;fillColor=#007FFF;" parent="1" vertex="1">
                    <mxGeometry x="40" y="212" width="60" height="30" as="geometry"/>
                </mxCell>
                <mxCell id="18" value="登録" style="rounded=1;whiteSpace=wrap;html=1;fillColor=#007FFF;" parent="1" vertex="1">
                    <mxGeometry x="716" y="212" width="60" height="30" as="geometry"/>
                </mxCell>
                <mxCell id="21" value="Cosmo Computing System Demo Site （TODOリスト編集)" style="text;html=1;strokeColor=none;fillColor=none;align=center;verticalAlign=middle;whiteSpace=wrap;rounded=0;fontSize=16;labelBorderColor=default;fontColor=#0a0a0a;strokeWidth=0;" parent="1" vertex="1">
                    <mxGeometry x="120" y="40" width="480" height="30" as="geometry"/>
                </mxCell>
                <mxCell id="22" value="　削除" style="rounded=0;whiteSpace=wrap;html=1;align=left;strokeColor=#CCCCCC;fillColor=#FFFFFF;fontColor=#000000;" vertex="1" parent="1">
                    <mxGeometry x="40" y="110" width="80" height="30" as="geometry"/>
                </mxCell>
                <mxCell id="24" value="" style="rounded=0;whiteSpace=wrap;html=1;align=left;fillColor=#FFFFFF;fontColor=#000000;strokeColor=#CCCCCC;" vertex="1" parent="1">
                    <mxGeometry x="40" y="150" width="80" height="40" as="geometry"/>
                </mxCell>
                <mxCell id="25" style="edgeStyle=none;html=1;exitX=1;exitY=0.75;exitDx=0;exitDy=0;" edge="1" parent="1" source="24" target="24">
                    <mxGeometry relative="1" as="geometry"/>
                </mxCell>
                <mxCell id="23" value="削除" style="rounded=1;whiteSpace=wrap;html=1;strokeColor=#007FFF;fillColor=#FFFFFF;fontColor=#007FFF;" vertex="1" parent="1">
                    <mxGeometry x="50" y="155" width="60" height="30" as="geometry"/>
                </mxCell>
                <mxCell id="26" value="Home" style="rounded=1;whiteSpace=wrap;html=1;strokeColor=none;fillColor=#FFFFFF;fontColor=#007FFF;" vertex="1" parent="1">
                    <mxGeometry x="716" y="40" width="60" height="30" as="geometry"/>
                </mxCell>
            </root>
        </mxGraphModel>
    </diagram>
</mxfile>